<svg width="24" height="24" viewBox="0 0 24 24" fill="none" xmlns="http://www.w3.org/2000/svg">
<path fill-rule="evenodd" clip-rule="evenodd" d="M17.146 6.14599C17.2399 6.0521 17.3672 5.99936 17.5 5.99936C17.6328 5.99936 17.7601 6.0521 17.854 6.14599C17.9479 6.23988 18.0006 6.36722 18.0006 6.49999C18.0006 6.63277 17.9479 6.7601 17.854 6.85399L14.707 9.99999H17.5C17.6326 9.99999 17.7598 10.0527 17.8536 10.1464C17.9473 10.2402 18 10.3674 18 10.5C18 10.6326 17.9473 10.7598 17.8536 10.8535C17.7598 10.9473 17.6326 11 17.5 11H13.5C13.3674 11 13.2402 10.9473 13.1465 10.8535C13.0527 10.7598 13 10.6326 13 10.5V6.49999C13 6.36738 13.0527 6.24021 13.1465 6.14644C13.2402 6.05267 13.3674 5.99999 13.5 5.99999C13.6326 5.99999 13.7598 6.05267 13.8536 6.14644C13.9473 6.24021 14 6.36738 14 6.49999V9.29299L17.146 6.14599ZM6.85401 17.854C6.76012 17.9479 6.63278 18.0006 6.50001 18.0006C6.36723 18.0006 6.23989 17.9479 6.14601 17.854C6.05212 17.7601 5.99937 17.6328 5.99937 17.5C5.99937 17.3672 6.05212 17.2399 6.14601 17.146L9.29301 14H6.50001C6.3674 14 6.24022 13.9473 6.14645 13.8535C6.05268 13.7598 6.00001 13.6326 6.00001 13.5C6.00001 13.3674 6.05268 13.2402 6.14645 13.1464C6.24022 13.0527 6.3674 13 6.50001 13H10.5C10.6326 13 10.7598 13.0527 10.8536 13.1464C10.9473 13.2402 11 13.3674 11 13.5V17.5C11 17.6326 10.9473 17.7598 10.8536 17.8535C10.7598 17.9473 10.6326 18 10.5 18C10.3674 18 10.2402 17.9473 10.1465 17.8535C10.0527 17.7598 10 17.6326 10 17.5V14.707L6.85401 17.854Z" fill="black"/>
</svg>
