<svg width="24" height="24" viewBox="0 0 24 24" fill="none" xmlns="http://www.w3.org/2000/svg">
<path fill-rule="evenodd" clip-rule="evenodd" d="M6.5 6.99999C6.36739 6.99999 6.24021 7.05267 6.14645 7.14644C6.05268 7.24021 6 7.36738 6 7.49999C6 7.6326 6.05268 7.75978 6.14645 7.85354C6.24021 7.94731 6.36739 7.99999 6.5 7.99999H11.5C11.6326 7.99999 11.7598 7.94731 11.8536 7.85354C11.9473 7.75978 12 7.6326 12 7.49999C12 7.36738 11.9473 7.24021 11.8536 7.14644C11.7598 7.05267 11.6326 6.99999 11.5 6.99999H6.5ZM6.5 9.99999C6.36739 9.99999 6.24021 10.0527 6.14645 10.1464C6.05268 10.2402 6 10.3674 6 10.5C6 10.6326 6.05268 10.7598 6.14645 10.8535C6.24021 10.9473 6.36739 11 6.5 11H11.5C11.6326 11 11.7598 10.9473 11.8536 10.8535C11.9473 10.7598 12 10.6326 12 10.5C12 10.3674 11.9473 10.2402 11.8536 10.1464C11.7598 10.0527 11.6326 9.99999 11.5 9.99999H6.5ZM6 13.5C6 13.3674 6.05268 13.2402 6.14645 13.1464C6.24021 13.0527 6.36739 13 6.5 13H11.5C11.6326 13 11.7598 13.0527 11.8536 13.1464C11.9473 13.2402 12 13.3674 12 13.5C12 13.6326 11.9473 13.7598 11.8536 13.8535C11.7598 13.9473 11.6326 14 11.5 14H6.5C6.36739 14 6.24021 13.9473 6.14645 13.8535C6.05268 13.7598 6 13.6326 6 13.5ZM6.5 16C6.36739 16 6.24021 16.0527 6.14645 16.1464C6.05268 16.2402 6 16.3674 6 16.5C6 16.6326 6.05268 16.7598 6.14645 16.8535C6.24021 16.9473 6.36739 17 6.5 17H11.5C11.6326 17 11.7598 16.9473 11.8536 16.8535C11.9473 16.7598 12 16.6326 12 16.5C12 16.3674 11.9473 16.2402 11.8536 16.1464C11.7598 16.0527 11.6326 16 11.5 16H6.5ZM13.146 16.146L15.146 14.146C15.1924 14.0994 15.2476 14.0625 15.3084 14.0373C15.3691 14.0121 15.4342 13.9991 15.5 13.9991C15.5658 13.9991 15.6309 14.0121 15.6916 14.0373C15.7524 14.0625 15.8076 14.0994 15.854 14.146L17.854 16.146C17.9479 16.2399 18.0006 16.3672 18.0006 16.5C18.0006 16.6328 17.9479 16.7601 17.854 16.854C17.7601 16.9479 17.6328 17.0006 17.5 17.0006C17.3672 17.0006 17.2399 16.9479 17.146 16.854L15.5 15.207L13.854 16.854C13.7601 16.9479 13.6328 17.0006 13.5 17.0006C13.3672 17.0006 13.2399 16.9479 13.146 16.854C13.0521 16.7601 12.9994 16.6328 12.9994 16.5C12.9994 16.3672 13.0521 16.2399 13.146 16.146ZM15.854 9.85399C15.8076 9.90055 15.7524 9.9375 15.6916 9.9627C15.6309 9.98791 15.5658 10.0009 15.5 10.0009C15.4342 10.0009 15.3691 9.98791 15.3084 9.9627C15.2476 9.9375 15.1924 9.90055 15.146 9.85399L13.146 7.85399C13.0995 7.8075 13.0626 7.75231 13.0375 7.69157C13.0123 7.63084 12.9994 7.56573 12.9994 7.49999C12.9994 7.43425 13.0123 7.36915 13.0375 7.30841C13.0626 7.24767 13.0995 7.19248 13.146 7.14599C13.2399 7.0521 13.3672 6.99936 13.5 6.99936C13.5657 6.99936 13.6308 7.01231 13.6916 7.03747C13.7523 7.06263 13.8075 7.0995 13.854 7.14599L15.5 8.79299L17.146 7.14599C17.2399 7.0521 17.3672 6.99936 17.5 6.99936C17.6328 6.99936 17.7601 7.0521 17.854 7.14599C17.9479 7.23988 18.0006 7.36722 18.0006 7.49999C18.0006 7.63277 17.9479 7.7601 17.854 7.85399L15.854 9.85399Z" fill="black"/>
</svg>
