<svg width="24" height="24" viewBox="0 0 24 24" fill="none" xmlns="http://www.w3.org/2000/svg">
<path d="M7.64687 7.16532C8.88398 6.04924 10.5024 5.45085 12.1681 5.4937C13.8337 5.53655 15.4192 6.21739 16.5973 7.39561L16.8573 7.67232C17.9891 8.94539 18.576 10.6119 18.4916 12.3133L18.4646 12.6661C18.3207 14.0543 17.0569 14.7768 15.9389 14.7768H13.3928L13.299 14.786C13.1942 14.8075 13.0999 14.8644 13.0322 14.9473C12.9645 15.0303 12.9276 15.134 12.9276 15.241V15.7053C12.9276 16.4667 12.6138 17.1938 12.0733 17.6804C11.5162 18.1837 10.7102 18.4232 9.87263 18.1335C9.06401 17.8534 8.31867 17.4163 7.67937 16.8475L7.40358 16.5875C6.79994 15.9839 6.32109 15.2673 5.9944 14.4786C5.66771 13.69 5.49956 12.8447 5.49956 11.9911C5.49956 11.1374 5.66771 10.2921 5.9944 9.50349C6.32109 8.71484 6.79994 7.99826 7.40358 7.39468L7.64687 7.16532ZM15.9389 8.0521C14.8941 7.00734 13.4771 6.42041 11.9995 6.42041C10.522 6.42041 9.1049 7.00734 8.06008 8.0521L7.86322 8.26103C7.24694 8.94412 6.80942 9.7692 6.58971 10.6626C6.37 11.556 6.37496 12.4899 6.60412 13.3809C6.83329 14.2719 7.27954 15.0923 7.90302 15.7688C8.52651 16.4453 9.30782 16.9569 10.1772 17.2579C11.0853 17.5708 11.8932 16.8335 11.9907 15.8957L12 15.7053V15.242C12 14.8726 12.1467 14.5183 12.4079 14.2571C12.6691 13.9959 13.0234 13.8491 13.3928 13.8491H15.9399L16.0866 13.8436C16.7672 13.7906 17.3782 13.3672 17.5194 12.7144L17.5416 12.5705C17.6222 11.8002 17.5412 11.0217 17.3039 10.2844C17.0667 9.54724 16.6783 8.86759 16.1637 8.28888L15.9389 8.0521ZM8.75 11.992C8.99627 11.992 9.23245 12.0898 9.40659 12.264C9.58073 12.4381 9.67856 12.6743 9.67856 12.9206C9.67856 13.1668 9.58073 13.403 9.40659 13.5772C9.23245 13.7513 8.99627 13.8491 8.75 13.8491C8.50373 13.8491 8.26755 13.7513 8.09341 13.5772C7.91927 13.403 7.82144 13.1668 7.82144 12.9206C7.82144 12.6743 7.91927 12.4381 8.09341 12.264C8.26755 12.0898 8.50373 11.992 8.75 11.992ZM15.2499 10.1349C15.4962 10.135 15.7324 10.2329 15.9064 10.4072C16.0805 10.5814 16.1782 10.8176 16.178 11.0639C16.1779 11.3102 16.08 11.5463 15.9057 11.7204C15.7315 11.8944 15.4953 11.9921 15.249 11.992C15.0027 11.992 14.7666 11.8942 14.5924 11.72C14.4183 11.5459 14.3205 11.3097 14.3205 11.0634C14.3205 10.8172 14.4183 10.581 14.5924 10.4068C14.7666 10.2327 15.0027 10.1349 15.249 10.1349M9.67763 8.74202C9.92403 8.74202 10.1603 8.8399 10.3346 9.01413C10.5088 9.18836 10.6067 9.42466 10.6067 9.67105C10.6067 9.91744 10.5088 10.1537 10.3346 10.328C10.1603 10.5022 9.92403 10.6001 9.67763 10.6001C9.43136 10.6001 9.19518 10.5022 9.02104 10.3281C8.8469 10.154 8.74907 9.91779 8.74907 9.67152C8.74907 9.42524 8.8469 9.18906 9.02104 9.01492C9.19518 8.84078 9.43136 8.74202 9.67763 8.74202ZM12.9276 7.81439C13.1739 7.81439 13.4101 7.91222 13.5842 8.08636C13.7583 8.2605 13.8562 8.49668 13.8562 8.74295C13.8562 8.98922 13.7583 9.22541 13.5842 9.39955C13.4101 9.57368 13.1739 9.67152 12.9276 9.67152C12.6813 9.67152 12.4452 9.57368 12.271 9.39955C12.0969 9.22541 11.999 8.98922 11.999 8.74295C11.999 8.49668 12.0969 8.2605 12.271 8.08636C12.4452 7.91222 12.6813 7.81439 12.9276 7.81439Z" fill="black"/>
</svg>
