<svg width="24" height="24" viewBox="0 0 24 24" fill="none" xmlns="http://www.w3.org/2000/svg">
<path d="M12.9167 9.25H7.41667C6.91041 9.25 6.5 9.66041 6.5 10.1667V16.5833C6.5 17.0896 6.91041 17.5 7.41667 17.5H12.9167C13.4229 17.5 13.8333 17.0896 13.8333 16.5833V10.1667C13.8333 9.66041 13.4229 9.25 12.9167 9.25Z" stroke="black"/>
<path d="M9.25 9.25V7.41667C9.25 7.17355 9.34658 6.94039 9.51849 6.76849C9.69039 6.59658 9.92355 6.5 10.1667 6.5H16.5833C16.8264 6.5 17.0596 6.59658 17.2315 6.76849C17.4034 6.94039 17.5 7.17355 17.5 7.41667V13.8333C17.5 14.0764 17.4034 14.3096 17.2315 14.4815C17.0596 14.6534 16.8264 14.75 16.5833 14.75H14.75" stroke="black"/>
</svg>
