<svg width="24" height="24" viewBox="0 0 24 24" fill="none" xmlns="http://www.w3.org/2000/svg">
<path d="M11.2 16.5C11.2 17.325 10.48 18 9.6 18C8.72 18 8 17.325 8 16.5C8 15.675 8.72 15 9.6 15C10.48 15 11.2 15.675 11.2 16.5ZM9.6 10.5C8.72 10.5 8 11.175 8 12C8 12.825 8.72 13.5 9.6 13.5C10.48 13.5 11.2 12.825 11.2 12C11.2 11.175 10.48 10.5 9.6 10.5ZM9.6 6C8.72 6 8 6.675 8 7.5C8 8.325 8.72 9 9.6 9C10.48 9 11.2 8.325 11.2 7.5C11.2 6.675 10.48 6 9.6 6ZM14.4 9C15.28 9 16 8.325 16 7.5C16 6.675 15.28 6 14.4 6C13.52 6 12.8 6.675 12.8 7.5C12.8 8.325 13.52 9 14.4 9ZM14.4 10.5C13.52 10.5 12.8 11.175 12.8 12C12.8 12.825 13.52 13.5 14.4 13.5C15.28 13.5 16 12.825 16 12C16 11.175 15.28 10.5 14.4 10.5ZM14.4 15C13.52 15 12.8 15.675 12.8 16.5C12.8 17.325 13.52 18 14.4 18C15.28 18 16 17.325 16 16.5C16 15.675 15.28 15 14.4 15Z" fill="black"/>
</svg>
