<svg width="24" height="24" viewBox="0 0 24 24" fill="none" xmlns="http://www.w3.org/2000/svg">
<path d="M17.499 13.999C17.6318 13.999 17.7596 14.0516 17.8535 14.1455C17.9474 14.2394 18 14.3672 18 14.5C17.9999 14.6326 17.9472 14.7597 17.8535 14.8535L15.8535 16.8535C15.8071 16.9 15.7521 16.9377 15.6914 16.9629C15.6307 16.9881 15.5648 17.001 15.499 17.001C15.4334 17.0009 15.3682 16.988 15.3076 16.9629C15.2469 16.9377 15.192 16.9001 15.1455 16.8535L13.1455 14.8535C13.0517 14.7597 12.9991 14.6327 12.999 14.5C12.999 14.3672 13.0516 14.2394 13.1455 14.1455C13.2393 14.0518 13.3665 13.9991 13.499 13.999C13.6318 13.999 13.7596 14.0516 13.8535 14.1455L15.499 15.793L17.1455 14.1455C17.2393 14.0518 17.3665 13.9991 17.499 13.999Z" fill="black"/>
<path d="M11.5 16C11.6326 16 11.7597 16.0527 11.8535 16.1465C11.9473 16.2403 12 16.3674 12 16.5C12 16.6326 11.9473 16.7597 11.8535 16.8535C11.7597 16.9473 11.6326 17 11.5 17H6.5C6.36739 17 6.24025 16.9473 6.14648 16.8535C6.05272 16.7597 6 16.6326 6 16.5C6 16.3674 6.05272 16.2403 6.14648 16.1465C6.24025 16.0527 6.36739 16 6.5 16H11.5Z" fill="black"/>
<path d="M11.5 13C11.6326 13 11.7597 13.0527 11.8535 13.1465C11.9473 13.2403 12 13.3674 12 13.5C12 13.6326 11.9473 13.7597 11.8535 13.8535C11.7597 13.9473 11.6326 14 11.5 14H6.5C6.36739 14 6.24025 13.9473 6.14648 13.8535C6.05272 13.7597 6 13.6326 6 13.5C6 13.3674 6.05272 13.2403 6.14648 13.1465C6.24025 13.0527 6.36739 13 6.5 13H11.5Z" fill="black"/>
<path d="M11.5 10C11.6326 10 11.7597 10.0527 11.8535 10.1465C11.9473 10.2403 12 10.3674 12 10.5C12 10.6326 11.9473 10.7597 11.8535 10.8535C11.7597 10.9473 11.6326 11 11.5 11H6.5C6.36739 11 6.24025 10.9473 6.14648 10.8535C6.05272 10.7597 6 10.6326 6 10.5C6 10.3674 6.05272 10.2403 6.14648 10.1465C6.24025 10.0527 6.36739 10 6.5 10H11.5Z" fill="black"/>
<path d="M15.499 6.99902C15.5648 6.99902 15.6307 7.0119 15.6914 7.03711C15.7521 7.06231 15.8071 7.09997 15.8535 7.14648L17.8535 9.14648C17.8999 9.19291 17.9368 9.24796 17.9619 9.30859C17.987 9.36925 18 9.43435 18 9.5C18 9.5656 17.987 9.63078 17.9619 9.69141C17.9368 9.75215 17.9 9.808 17.8535 9.85449C17.7596 9.94836 17.6318 10.001 17.499 10.001C17.4334 10.0009 17.3683 9.98801 17.3076 9.96289C17.247 9.93776 17.1919 9.90087 17.1455 9.85449L15.499 8.20703L13.8535 9.85449C13.7596 9.94836 13.6318 10.001 13.499 10.001C13.3665 10.0009 13.2393 9.94819 13.1455 9.85449C13.0516 9.76061 12.999 9.63278 12.999 9.5C12.9991 9.36734 13.0517 9.2403 13.1455 9.14648L15.1455 7.14648C15.192 7.09992 15.2469 7.06232 15.3076 7.03711C15.3682 7.01196 15.4334 6.99907 15.499 6.99902Z" fill="black"/>
<path d="M11.5 7C11.6326 7 11.7597 7.05272 11.8535 7.14648C11.9473 7.24025 12 7.36739 12 7.5C12 7.63261 11.9473 7.75975 11.8535 7.85352C11.7597 7.94728 11.6326 8 11.5 8H6.5C6.36739 8 6.24025 7.94728 6.14648 7.85352C6.05272 7.75975 6 7.63261 6 7.5C6 7.36739 6.05272 7.24025 6.14648 7.14648C6.24025 7.05272 6.36739 7 6.5 7H11.5Z" fill="black"/>
</svg>
