<svg width="24" height="24" viewBox="0 0 24 24" fill="none" xmlns="http://www.w3.org/2000/svg">
<path fill-rule="evenodd" clip-rule="evenodd" d="M17 7.707L13.854 10.854C13.7601 10.9479 13.6328 11.0006 13.5 11.0006C13.3672 11.0006 13.2399 10.9479 13.146 10.854C13.0521 10.7601 12.9994 10.6328 12.9994 10.5C12.9994 10.3672 13.0521 10.2399 13.146 10.146L16.293 7H13.5C13.3674 7 13.2402 6.94732 13.1464 6.85355C13.0527 6.75979 13 6.63261 13 6.5C13 6.36739 13.0527 6.24021 13.1464 6.14645C13.2402 6.05268 13.3674 6 13.5 6H17.5C17.6326 6 17.7598 6.05268 17.8536 6.14645C17.9473 6.24021 18 6.36739 18 6.5V10.5C18 10.6326 17.9473 10.7598 17.8536 10.8536C17.7598 10.9473 17.6326 11 17.5 11C17.3674 11 17.2402 10.9473 17.1464 10.8536C17.0527 10.7598 17 10.6326 17 10.5V7.707ZM10.146 13.147C10.2398 13.0531 10.367 13.0003 10.4996 13.0002C10.6323 13.0001 10.7596 13.0527 10.8535 13.1465C10.9474 13.2403 11.0002 13.3675 11.0003 13.5001C11.0004 13.6328 10.9478 13.7601 10.854 13.854L7.707 17H10.5C10.6326 17 10.7598 17.0527 10.8536 17.1464C10.9473 17.2402 11 17.3674 11 17.5C11 17.6326 10.9473 17.7598 10.8536 17.8536C10.7598 17.9473 10.6326 18 10.5 18H6.5C6.36739 18 6.24021 17.9473 6.14645 17.8536C6.05268 17.7598 6 17.6326 6 17.5V13.5C6 13.3674 6.05268 13.2402 6.14645 13.1464C6.24021 13.0527 6.36739 13 6.5 13C6.63261 13 6.75979 13.0527 6.85355 13.1464C6.94732 13.2402 7 13.3674 7 13.5V16.293L10.146 13.147Z" fill="black"/>
</svg>
