<svg width="24" height="24" viewBox="0 0 24 24" fill="none" xmlns="http://www.w3.org/2000/svg">
<path d="M10.9219 6.5L11.0674 6.64648L12.3496 7.92871H17.8574C18.3687 7.92878 18.8591 8.13168 19.2207 8.49316C19.5824 8.85484 19.7861 9.34593 19.7861 9.85742V15.5713C19.7861 16.0828 19.5824 16.5739 19.2207 16.9355C18.8591 17.297 18.3687 17.4999 17.8574 17.5H6.42871C5.91722 17.5 5.42613 17.2972 5.06445 16.9355C4.70278 16.5739 4.5 16.0828 4.5 15.5713V8.42871C4.5 7.91722 4.70278 7.42613 5.06445 7.06445C5.42613 6.70278 5.91722 6.5 6.42871 6.5H10.9219Z" stroke="black"/>
</svg>
