<svg width="24" height="24" viewBox="0 0 24 24" fill="none" xmlns="http://www.w3.org/2000/svg">
<path d="M16.2411 7.76401C15.2574 6.78271 13.9639 6.17289 12.581 6.03846C11.1981 5.90404 9.8113 6.25333 8.65704 7.02681C7.50279 7.80029 6.65248 8.9501 6.251 10.2803C5.84953 11.6105 5.92175 13.0387 6.45534 14.3216C6.98894 15.6045 7.9509 16.6627 9.17728 17.3158C10.4037 17.9689 11.8186 18.1766 13.1809 17.9033C14.5432 17.6301 15.7686 16.8929 16.6483 15.8174C17.528 14.7419 18.0075 13.3946 18.0051 12.0051H16.5038C16.5048 13.0472 16.1443 14.0573 15.4839 14.8634C14.8236 15.6694 13.9041 16.2216 12.8823 16.4257C11.8604 16.6298 10.7994 16.4733 9.88 15.9828C8.96062 15.4923 8.23977 14.6982 7.84027 13.7358C7.44077 12.7734 7.38736 11.7022 7.68913 10.7048C7.9909 9.70742 8.62919 8.84553 9.49521 8.26601C10.3612 7.68649 11.4014 7.42519 12.4385 7.52665C13.4756 7.62811 14.4454 8.08604 15.1827 8.82242L13.5013 10.5039H18.0051V6L16.2411 7.76401Z" fill="black"/>
</svg>
