<svg width="24" height="24" viewBox="0 0 24 24" fill="none" xmlns="http://www.w3.org/2000/svg">
<path d="M8.33333 10.1667C9.34586 10.1667 10.1667 9.34586 10.1667 8.33333C10.1667 7.32081 9.34586 6.5 8.33333 6.5C7.32081 6.5 6.5 7.32081 6.5 8.33333C6.5 9.34586 7.32081 10.1667 8.33333 10.1667Z" stroke="black" stroke-width="1.2"/>
<path d="M15.6667 10.1667C16.6792 10.1667 17.5 9.34586 17.5 8.33333C17.5 7.32081 16.6792 6.5 15.6667 6.5C14.6542 6.5 13.8333 7.32081 13.8333 8.33333C13.8333 9.34586 14.6542 10.1667 15.6667 10.1667Z" stroke="black" stroke-width="1.2"/>
<path d="M12 17.5C13.0125 17.5 13.8333 16.6792 13.8333 15.6667C13.8333 14.6542 13.0125 13.8333 12 13.8333C10.9875 13.8333 10.1667 14.6542 10.1667 15.6667C10.1667 16.6792 10.9875 17.5 12 17.5Z" stroke="black" stroke-width="1.2"/>
<path d="M9.70834 9.70834L11.0833 13.8333M14.2917 9.70834L12.9167 13.8333M10.1667 8.33334H13.8333" stroke="black" stroke-width="1.2" stroke-linecap="round"/>
</svg>
