<svg width="24" height="24" viewBox="0 0 24 24" fill="none" xmlns="http://www.w3.org/2000/svg">
<path d="M7.55566 15.0557C7.83175 15.0557 8.05566 15.2796 8.05566 15.5557V17.333C8.0556 17.6091 7.83171 17.8329 7.55566 17.833C7.27956 17.833 7.05573 17.6091 7.05566 17.333V15.5557C7.05566 15.2795 7.27952 15.0557 7.55566 15.0557Z" fill="black"/>
<path fill-rule="evenodd" clip-rule="evenodd" d="M10.2129 4.00488C10.7173 4.05595 11.1113 4.48213 11.1113 5V7.6709L12.1865 6.50781C13.1498 5.46536 14.7864 5.43292 15.79 6.43652L17.5039 8.14941C18.48 9.12563 18.4799 10.7083 17.5039 11.6846L16.7998 12.3887H19C19.8284 12.3887 20.4999 13.0603 20.5 13.8887V18.5557C20.4998 19.3839 19.8283 20.0557 19 20.0557H7.55566V20L7.37305 19.9951C5.49425 19.9001 4 18.3468 4 16.4443V5C4 4.44772 4.44773 4 5 4H10.1113L10.2129 4.00488ZM10.1328 19.0557H15.0557V14.1328L10.1328 19.0557ZM16.0557 19.0557H19C19.276 19.0557 19.4998 18.8317 19.5 18.5557V13.8887C19.4999 13.6126 19.2761 13.3887 19 13.3887H16.0557V19.0557ZM5 16.4443C5 17.8557 6.14431 19 7.55566 19C8.96692 18.9999 10.1113 17.8557 10.1113 16.4443V13.3887H5V16.4443ZM11.1113 16.4443L11.1064 16.627C11.1057 16.6417 11.1035 16.6562 11.1025 16.6709L12.4219 15.3506L11.1113 14.04V16.4443ZM11.1113 12.626L13.1289 14.6436L14.7139 13.0596L11.1113 9.45703V12.626ZM5 12.3887H10.1113V8.94434H5V12.3887ZM15.083 7.14355C14.4808 6.54138 13.4988 6.56094 12.9209 7.18652L11.6406 8.57129L15.4209 12.3525L16.7969 10.9775C17.3823 10.3918 17.3825 9.44214 16.7969 8.85645L15.083 7.14355ZM5 7.94434H10.1113V5H5V7.94434Z" fill="black"/>
</svg>
