<svg width="24" height="24" viewBox="0 0 24 24" fill="none" xmlns="http://www.w3.org/2000/svg">
<path opacity="0.2" d="M7.33333 3H4.66667C4.29848 3 4 3.44772 4 4V20C4 20.5523 4.29848 21 4.66667 21H7.33333C7.70152 21 8 20.5523 8 20V4C8 3.44772 7.70152 3 7.33333 3Z" fill="black"/>
<path opacity="0.5" d="M13.3333 3H10.6667C10.2985 3 10 3.44772 10 4V20C10 20.5523 10.2985 21 10.6667 21H13.3333C13.7015 21 14 20.5523 14 20V4C14 3.44772 13.7015 3 13.3333 3Z" fill="black"/>
<path d="M19.3333 3H16.6667C16.2985 3 16 3.44772 16 4V20C16 20.5523 16.2985 21 16.6667 21H19.3333C19.7015 21 20 20.5523 20 20V4C20 3.44772 19.7015 3 19.3333 3Z" fill="black"/>
</svg>
