<svg width="24" height="24" viewBox="0 0 24 24" fill="none" xmlns="http://www.w3.org/2000/svg">
<path d="M16.224 7.08201C16.3203 7.01897 16.4353 6.99099 16.5497 7.00275C16.6642 7.01451 16.7711 7.06531 16.8525 7.14661C16.9339 7.2279 16.9849 7.33475 16.9968 7.44918C17.0087 7.56362 16.9809 7.67867 16.918 7.77501L16.853 7.85301L12.707 12L16.853 16.146L16.918 16.224C16.9828 16.3202 17.0121 16.4359 17.0009 16.5514C16.9898 16.6668 16.9388 16.7748 16.8568 16.8568C16.7748 16.9388 16.6668 16.9898 16.5514 17.0009C16.4359 17.0121 16.3202 16.9828 16.224 16.918L16.146 16.853L12 12.706L7.85301 16.853C7.80688 16.9008 7.75171 16.9389 7.69071 16.9651C7.62971 16.9913 7.5641 17.0051 7.49771 17.0056C7.43132 17.0062 7.36548 16.9936 7.30403 16.9684C7.24258 16.9433 7.18676 16.9062 7.13981 16.8592C7.09286 16.8123 7.05574 16.7564 7.0306 16.695C7.00546 16.6335 6.9928 16.5677 6.99338 16.5013C6.99396 16.4349 7.00775 16.3693 7.03396 16.3083C7.06016 16.2473 7.09825 16.1921 7.14601 16.146L11.293 11.999L7.14601 7.85301L7.08201 7.77501C7.01953 7.67875 6.99199 7.56395 7.004 7.44982C7.01601 7.33569 7.06684 7.22914 7.14799 7.148C7.22914 7.06685 7.33569 7.01602 7.44982 7.00401C7.56395 6.992 7.67874 7.01953 7.77501 7.08201L7.85301 7.14601L12 11.293L16.146 7.14601L16.224 7.08201Z" fill="black"/>
</svg>
